999
DXF from OpenSCAD
  0
SECTION
  2
HEADER
  9
$ACADVER
  1
AC1006
  9
$INSBASE
 10
0.0
 20
0.0
 30
0.0
  9
$EXTMIN
 10
1057.24
 20
456.219
  9
$EXTMAX
 10
1482.19
 20
576.219
  9
$LINMIN
 10
1057.24
 20
456.219
  9
$LINMAX
 10
1482.19
 20
576.219
  0
ENDSEC
  0
SECTION
  2
TABLES
  0
TABLE
  2
LTYPE
 70
1
  0
LTYPE
  2
CONTINUOUS
 70
64
  3
Solid line
 72
65
 73
0
 40
0.000000
  0
ENDTAB
  0
TABLE
  2
LAYER
 70
6
  0
LAYER
  2
0
 70
64
 62
7
  6
CONTINUOUS
  0
ENDTAB
  0
TABLE
  2
STYLE
 70
0
  0
ENDTAB
  0
ENDSEC
  0
SECTION
  2
BLOCKS
  0
ENDSEC
  0
SECTION
  2
ENTITIES
  0
LWPOLYLINE
100
AcDbEntity
  8
0
100
AcDbPolyline
 90
28
 70
1
 10
1440.97
 20
471.374
 10
1446.79
 20
472.245
 10
1452.45
 20
473.868
 10
1457.85
 20
476.216
 10
1462.89
 20
479.248
 10
1467.5
 20
482.913
 10
1471.59
 20
487.147
 10
1475.09
 20
491.88
 10
1477.94
 20
497.028
 10
1480.1
 20
502.505
 10
1481.52
 20
508.217
 10
1482.19
 20
514.065
 10
1482.08
 20
519.951
 10
1481.21
 20
525.772
 10
1479.59
 20
531.43
 10
1477.24
 20
536.828
 10
1474.21
 20
541.873
 10
1470.54
 20
546.479
 10
1466.31
 20
550.568
 10
1461.58
 20
554.069
 10
1456.43
 20
556.922
 10
1450.95
 20
559.078
 10
1445.24
 20
560.502
 10
1439.39
 20
561.167
 10
1277.24
 20
576.219
 10
1057.24
 20
576.219
 10
1057.24
 20
456.219
 10
1307.24
 20
456.219
  0
LWPOLYLINE
100
AcDbEntity
  8
0
100
AcDbPolyline
 90
48
 70
1
 10
1434.53
 20
501.212
 10
1432.59
 20
501.694
 10
1430.73
 20
502.425
 10
1428.99
 20
503.392
 10
1427.38
 20
504.578
 10
1425.95
 20
505.964
 10
1424.71
 20
507.525
 10
1423.68
 20
509.235
 10
1422.88
 20
511.064
 10
1422.33
 20
512.981
 10
1422.04
 20
514.954
 10
1422
 20
516.949
 10
1422.23
 20
518.931
 10
1422.71
 20
520.866
 10
1423.44
 20
522.722
 10
1424.41
 20
524.467
 10
1425.6
 20
526.071
 10
1426.98
 20
527.506
 10
1428.54
 20
528.748
 10
1430.25
 20
529.775
 10
1432.08
 20
530.571
 10
1434
 20
531.121
 10
1435.97
 20
531.416
 10
1437.97
 20
531.451
 10
1439.95
 20
531.226
 10
1441.88
 20
530.743
 10
1443.74
 20
530.013
 10
1445.49
 20
529.046
 10
1447.09
 20
527.859
 10
1448.52
 20
526.474
 10
1449.77
 20
524.913
 10
1450.79
 20
523.203
 10
1451.59
 20
521.374
 10
1452.14
 20
519.456
 10
1452.43
 20
517.483
 10
1452.47
 20
515.489
 10
1452.24
 20
513.507
 10
1451.76
 20
511.571
 10
1451.03
 20
509.715
 10
1450.06
 20
507.97
 10
1448.88
 20
506.367
 10
1447.49
 20
504.932
 10
1445.93
 20
503.69
 10
1444.22
 20
502.662
 10
1442.39
 20
501.866
 10
1440.47
 20
501.316
 10
1438.5
 20
501.021
 10
1436.51
 20
500.986
  0
ENDSEC
  0
EOF
