999
DXF from OpenSCAD
  0
SECTION
  2
HEADER
  9
$ACADVER
  1
AC1006
  9
$INSBASE
 10
0.0
 20
0.0
 30
0.0
  9
$EXTMIN
 10
678
 20
-50
  9
$EXTMAX
 10
1000
 20
109.5
  9
$LINMIN
 10
678
 20
-50
  9
$LINMAX
 10
1000
 20
109.5
  0
ENDSEC
  0
SECTION
  2
TABLES
  0
TABLE
  2
LTYPE
 70
1
  0
LTYPE
  2
CONTINUOUS
 70
64
  3
Solid line
 72
65
 73
0
 40
0.000000
  0
ENDTAB
  0
TABLE
  2
LAYER
 70
6
  0
LAYER
  2
0
 70
64
 62
7
  6
CONTINUOUS
  0
ENDTAB
  0
TABLE
  2
STYLE
 70
0
  0
ENDTAB
  0
ENDSEC
  0
SECTION
  2
BLOCKS
  0
ENDSEC
  0
SECTION
  2
ENTITIES
  0
LWPOLYLINE
100
AcDbEntity
  8
0
100
AcDbPolyline
 90
14
 70
1
 10
1000
 20
-25
 10
1000
 20
25
 10
975
 20
50
 10
811.203
 20
106.874
 10
806.929
 20
108.324
 10
802.503
 20
109.205
 10
798
 20
109.5
 10
793.497
 20
109.205
 10
789.071
 20
108.324
 10
784.797
 20
106.874
 10
780.75
 20
104.878
 10
678
 20
50
 10
678
 20
-50
 10
975
 20
-50
  0
LWPOLYLINE
100
AcDbEntity
  8
0
100
AcDbPolyline
 90
48
 70
1
 10
795.063
 20
52.6925
 10
792.177
 20
53.2667
 10
789.39
 20
54.2127
 10
786.75
 20
55.5144
 10
784.303
 20
57.1495
 10
782.09
 20
59.0901
 10
780.15
 20
61.3029
 10
778.514
 20
63.75
 10
777.213
 20
66.3896
 10
776.267
 20
69.1766
 10
775.692
 20
72.0632
 10
775.5
 20
75
 10
775.692
 20
77.9368
 10
776.267
 20
80.8234
 10
777.213
 20
83.6104
 10
778.514
 20
86.25
 10
780.15
 20
88.6971
 10
782.09
 20
90.9099
 10
784.303
 20
92.8505
 10
786.75
 20
94.4856
 10
789.39
 20
95.7873
 10
792.177
 20
96.7333
 10
795.063
 20
97.3075
 10
798
 20
97.5
 10
800.937
 20
97.3075
 10
803.823
 20
96.7333
 10
806.61
 20
95.7873
 10
809.25
 20
94.4856
 10
811.697
 20
92.8505
 10
813.91
 20
90.9099
 10
815.85
 20
88.6971
 10
817.486
 20
86.25
 10
818.787
 20
83.6104
 10
819.733
 20
80.8234
 10
820.308
 20
77.9368
 10
820.5
 20
75
 10
820.308
 20
72.0632
 10
819.733
 20
69.1766
 10
818.787
 20
66.3896
 10
817.486
 20
63.75
 10
815.85
 20
61.3029
 10
813.91
 20
59.0901
 10
811.697
 20
57.1495
 10
809.25
 20
55.5144
 10
806.61
 20
54.2127
 10
803.823
 20
53.2667
 10
800.937
 20
52.6925
 10
798
 20
52.5
  0
LWPOLYLINE
100
AcDbEntity
  8
0
100
AcDbPolyline
 90
48
 70
1
 10
945.693
 20
-32.7177
 10
941.459
 20
-31.8756
 10
937.371
 20
-30.488
 10
933.5
 20
-28.5788
 10
929.911
 20
-26.1807
 10
926.665
 20
-23.3345
 10
923.819
 20
-20.0891
 10
921.421
 20
-16.5
 10
919.512
 20
-12.6286
 10
918.124
 20
-8.54103
 10
917.282
 20
-4.30736
 10
917
 20
0
 10
917.282
 20
4.30736
 10
918.124
 20
8.54103
 10
919.512
 20
12.6286
 10
921.421
 20
16.5
 10
923.819
 20
20.0891
 10
926.665
 20
23.3345
 10
929.911
 20
26.1807
 10
933.5
 20
28.5788
 10
937.371
 20
30.488
 10
941.459
 20
31.8756
 10
945.693
 20
32.7177
 10
950
 20
33
 10
954.307
 20
32.7177
 10
958.541
 20
31.8756
 10
962.629
 20
30.488
 10
966.5
 20
28.5788
 10
970.089
 20
26.1807
 10
973.335
 20
23.3345
 10
976.181
 20
20.0891
 10
978.579
 20
16.5
 10
980.488
 20
12.6286
 10
981.876
 20
8.54103
 10
982.718
 20
4.30736
 10
983
 20
0
 10
982.718
 20
-4.30736
 10
981.876
 20
-8.54103
 10
980.488
 20
-12.6286
 10
978.579
 20
-16.5
 10
976.181
 20
-20.0891
 10
973.335
 20
-23.3345
 10
970.089
 20
-26.1807
 10
966.5
 20
-28.5788
 10
962.629
 20
-30.488
 10
958.541
 20
-31.8756
 10
954.307
 20
-32.7177
 10
950
 20
-33
  0
ENDSEC
  0
EOF
