999
DXF from OpenSCAD
  0
SECTION
  2
HEADER
  9
$ACADVER
  1
AC1006
  9
$INSBASE
 10
0.0
 20
0.0
 30
0.0
  9
$EXTMIN
 10
168
 20
60
  9
$EXTMAX
 10
278.5
 20
152.5
  9
$LINMIN
 10
168
 20
60
  9
$LINMAX
 10
278.5
 20
152.5
  0
ENDSEC
  0
SECTION
  2
TABLES
  0
TABLE
  2
LTYPE
 70
1
  0
LTYPE
  2
CONTINUOUS
 70
64
  3
Solid line
 72
65
 73
0
 40
0.000000
  0
ENDTAB
  0
TABLE
  2
LAYER
 70
6
  0
LAYER
  2
0
 70
64
 62
7
  6
CONTINUOUS
  0
ENDTAB
  0
TABLE
  2
STYLE
 70
0
  0
ENDTAB
  0
ENDSEC
  0
SECTION
  2
BLOCKS
  0
ENDSEC
  0
SECTION
  2
ENTITIES
  0
LWPOLYLINE
100
AcDbEntity
  8
0
100
AcDbPolyline
 90
23
 70
1
 10
278.222
 20
115.758
 10
278.5
 20
120
 10
278.222
 20
124.242
 10
277.393
 20
128.412
 10
276.026
 20
132.437
 10
274.146
 20
136.25
 10
271.784
 20
139.785
 10
268.981
 20
142.981
 10
265.785
 20
145.784
 10
262.25
 20
148.146
 10
258.437
 20
150.026
 10
254.412
 20
151.393
 10
250.242
 20
152.222
 10
246
 20
152.5
 10
241.758
 20
152.222
 10
237.588
 20
151.393
 10
233.563
 20
150.026
 10
229.75
 20
148.146
 10
226.215
 20
145.784
 10
223.019
 20
142.981
 10
191
 20
110.25
 10
168
 20
60
 10
274
 20
60
  0
LWPOLYLINE
100
AcDbEntity
  8
0
100
AcDbPolyline
 90
48
 70
1
 10
244.368
 20
107.607
 10
242.765
 20
107.926
 10
241.216
 20
108.452
 10
239.75
 20
109.175
 10
238.39
 20
110.083
 10
237.161
 20
111.161
 10
236.083
 20
112.39
 10
235.175
 20
113.75
 10
234.452
 20
115.216
 10
233.926
 20
116.765
 10
233.607
 20
118.368
 10
233.5
 20
120
 10
233.607
 20
121.632
 10
233.926
 20
123.235
 10
234.452
 20
124.784
 10
235.175
 20
126.25
 10
236.083
 20
127.61
 10
237.161
 20
128.839
 10
238.39
 20
129.917
 10
239.75
 20
130.825
 10
241.216
 20
131.548
 10
242.765
 20
132.074
 10
244.368
 20
132.393
 10
246
 20
132.5
 10
247.632
 20
132.393
 10
249.235
 20
132.074
 10
250.784
 20
131.548
 10
252.25
 20
130.825
 10
253.61
 20
129.917
 10
254.839
 20
128.839
 10
255.917
 20
127.61
 10
256.825
 20
126.25
 10
257.548
 20
124.784
 10
258.074
 20
123.235
 10
258.393
 20
121.632
 10
258.5
 20
120
 10
258.393
 20
118.368
 10
258.074
 20
116.765
 10
257.548
 20
115.216
 10
256.825
 20
113.75
 10
255.917
 20
112.39
 10
254.839
 20
111.161
 10
253.61
 20
110.083
 10
252.25
 20
109.175
 10
250.784
 20
108.452
 10
249.235
 20
107.926
 10
247.632
 20
107.607
 10
246
 20
107.5
  0
ENDSEC
  0
EOF
