999
DXF from OpenSCAD
  0
SECTION
  2
HEADER
  9
$ACADVER
  1
AC1006
  9
$INSBASE
 10
0.0
 20
0.0
 30
0.0
  9
$EXTMIN
 10
777.237
 20
359.219
  9
$EXTMAX
 10
997.237
 20
446.219
  9
$LINMIN
 10
777.237
 20
359.219
  9
$LINMAX
 10
997.237
 20
446.219
  0
ENDSEC
  0
SECTION
  2
TABLES
  0
TABLE
  2
LTYPE
 70
1
  0
LTYPE
  2
CONTINUOUS
 70
64
  3
Solid line
 72
65
 73
0
 40
0.000000
  0
ENDTAB
  0
TABLE
  2
LAYER
 70
6
  0
LAYER
  2
0
 70
64
 62
7
  6
CONTINUOUS
  0
ENDTAB
  0
TABLE
  2
STYLE
 70
0
  0
ENDTAB
  0
ENDSEC
  0
SECTION
  2
BLOCKS
  0
ENDSEC
  0
SECTION
  2
ENTITIES
  0
LWPOLYLINE
100
AcDbEntity
  8
0
100
AcDbPolyline
 90
17
 70
1
 10
890.305
 20
359.346
 10
895.092
 20
360.062
 10
899.744
 20
361.397
 10
904.182
 20
363.327
 10
908.33
 20
365.82
 10
912.118
 20
368.834
 10
957.237
 20
407.319
 10
997.237
 20
446.219
 10
777.237
 20
446.219
 10
817.237
 20
407.319
 10
863.334
 20
367.976
 10
867.225
 20
365.098
 10
871.458
 20
362.752
 10
875.961
 20
360.979
 10
880.657
 20
359.808
 10
885.466
 20
359.261
 10
887.237
 20
359.219
  0
LWPOLYLINE
100
AcDbEntity
  8
0
100
AcDbPolyline
 90
48
 70
1
 10
884.569
 20
381.458
 10
882.666
 20
381.932
 10
880.84
 20
382.651
 10
879.124
 20
383.602
 10
877.546
 20
384.769
 10
876.135
 20
386.132
 10
874.913
 20
387.667
 10
873.902
 20
389.349
 10
873.12
 20
391.148
 10
872.579
 20
393.034
 10
872.289
 20
394.975
 10
872.254
 20
396.937
 10
872.476
 20
398.886
 10
872.95
 20
400.79
 10
873.669
 20
402.616
 10
874.62
 20
404.332
 10
875.787
 20
405.909
 10
877.15
 20
407.321
 10
878.685
 20
408.542
 10
880.367
 20
409.553
 10
882.166
 20
410.336
 10
884.052
 20
410.877
 10
885.993
 20
411.167
 10
887.955
 20
411.202
 10
889.904
 20
410.98
 10
891.808
 20
410.505
 10
893.634
 20
409.786
 10
895.35
 20
408.835
 10
896.927
 20
407.668
 10
898.339
 20
406.306
 10
899.561
 20
404.77
 10
900.571
 20
403.089
 10
901.354
 20
401.289
 10
901.895
 20
399.403
 10
902.185
 20
397.463
 10
902.22
 20
395.501
 10
901.998
 20
393.551
 10
901.523
 20
391.648
 10
900.804
 20
389.822
 10
899.853
 20
388.106
 10
898.687
 20
386.528
 10
897.324
 20
385.117
 10
895.788
 20
383.895
 10
894.107
 20
382.884
 10
892.307
 20
382.102
 10
890.421
 20
381.561
 10
888.481
 20
381.27
 10
886.519
 20
381.236
  0
ENDSEC
  0
EOF
