999
DXF from OpenSCAD
  0
SECTION
  2
HEADER
  9
$ACADVER
  1
AC1006
  9
$INSBASE
 10
0.0
 20
0.0
 30
0.0
  9
$EXTMIN
 10
-251.5
 20
-70
  9
$EXTMAX
 10
420
 20
168.5
  9
$LINMIN
 10
-251.5
 20
-70
  9
$LINMAX
 10
420
 20
168.5
  0
ENDSEC
  0
SECTION
  2
TABLES
  0
TABLE
  2
LTYPE
 70
1
  0
LTYPE
  2
CONTINUOUS
 70
64
  3
Solid line
 72
65
 73
0
 40
0.000000
  0
ENDTAB
  0
TABLE
  2
LAYER
 70
6
  0
LAYER
  2
0
 70
64
 62
7
  6
CONTINUOUS
  0
ENDTAB
  0
TABLE
  2
STYLE
 70
0
  0
ENDTAB
  0
ENDSEC
  0
SECTION
  2
BLOCKS
  0
ENDSEC
  0
SECTION
  2
ENTITIES
  0
LWPOLYLINE
100
AcDbEntity
  8
0
100
AcDbPolyline
 90
30
 70
1
 10
420
 20
-50
 10
420
 20
50
 10
380
 20
70
 10
84.3211
 20
70
 10
-205.553
 20
167.256
 10
-210.236
 20
168.188
 10
-215
 20
168.5
 10
-219.764
 20
168.188
 10
-224.447
 20
167.256
 10
-228.968
 20
165.722
 10
-233.25
 20
163.61
 10
-237.22
 20
160.957
 10
-240.809
 20
157.809
 10
-243.957
 20
154.22
 10
-246.61
 20
150.25
 10
-248.722
 20
145.968
 10
-250.256
 20
141.447
 10
-251.188
 20
136.764
 10
-251.5
 20
132
 10
-251.188
 20
127.236
 10
-250.256
 20
122.553
 10
-248.722
 20
118.032
 10
-246.61
 20
113.75
 10
-243.957
 20
109.78
 10
-240.809
 20
106.191
 10
-237.22
 20
103.043
 10
-233.25
 20
100.39
 10
-50
 20
9.54609
 10
-50
 20
-70
 10
380
 20
-70
  0
LWPOLYLINE
100
AcDbEntity
  8
0
100
AcDbPolyline
 90
48
 70
1
 10
-216.664
 20
119.359
 10
-218.3
 20
119.684
 10
-219.879
 20
120.221
 10
-221.375
 20
120.958
 10
-222.762
 20
121.885
 10
-224.016
 20
122.984
 10
-225.115
 20
124.238
 10
-226.042
 20
125.625
 10
-226.779
 20
127.121
 10
-227.316
 20
128.7
 10
-227.641
 20
130.336
 10
-227.75
 20
132
 10
-227.641
 20
133.664
 10
-227.316
 20
135.3
 10
-226.779
 20
136.879
 10
-226.042
 20
138.375
 10
-225.115
 20
139.762
 10
-224.016
 20
141.016
 10
-222.762
 20
142.115
 10
-221.375
 20
143.042
 10
-219.879
 20
143.779
 10
-218.3
 20
144.316
 10
-216.664
 20
144.641
 10
-215
 20
144.75
 10
-213.336
 20
144.641
 10
-211.7
 20
144.316
 10
-210.121
 20
143.779
 10
-208.625
 20
143.042
 10
-207.238
 20
142.115
 10
-205.984
 20
141.016
 10
-204.885
 20
139.762
 10
-203.958
 20
138.375
 10
-203.221
 20
136.879
 10
-202.684
 20
135.3
 10
-202.359
 20
133.664
 10
-202.25
 20
132
 10
-202.359
 20
130.336
 10
-202.684
 20
128.7
 10
-203.221
 20
127.121
 10
-203.958
 20
125.625
 10
-204.885
 20
124.238
 10
-205.984
 20
122.984
 10
-207.238
 20
121.885
 10
-208.625
 20
120.958
 10
-210.121
 20
120.221
 10
-211.7
 20
119.684
 10
-213.336
 20
119.359
 10
-215
 20
119.25
  0
LWPOLYLINE
100
AcDbEntity
  8
0
100
AcDbPolyline
 90
48
 70
1
 10
-4.30736
 20
-32.7177
 10
-8.54103
 20
-31.8756
 10
-12.6286
 20
-30.488
 10
-16.5
 20
-28.5788
 10
-20.0891
 20
-26.1807
 10
-23.3345
 20
-23.3345
 10
-26.1807
 20
-20.0891
 10
-28.5788
 20
-16.5
 10
-30.488
 20
-12.6286
 10
-31.8756
 20
-8.54103
 10
-32.7177
 20
-4.30736
 10
-33
 20
0
 10
-32.7177
 20
4.30736
 10
-31.8756
 20
8.54103
 10
-30.488
 20
12.6286
 10
-28.5788
 20
16.5
 10
-26.1807
 20
20.0891
 10
-23.3345
 20
23.3345
 10
-20.0891
 20
26.1807
 10
-16.5
 20
28.5788
 10
-12.6286
 20
30.488
 10
-8.54103
 20
31.8756
 10
-4.30736
 20
32.7177
 10
0
 20
33
 10
4.30736
 20
32.7177
 10
8.54103
 20
31.8756
 10
12.6286
 20
30.488
 10
16.5
 20
28.5788
 10
20.0891
 20
26.1807
 10
23.3345
 20
23.3345
 10
26.1807
 20
20.0891
 10
28.5788
 20
16.5
 10
30.488
 20
12.6286
 10
31.8756
 20
8.54103
 10
32.7177
 20
4.30736
 10
33
 20
0
 10
32.7177
 20
-4.30736
 10
31.8756
 20
-8.54103
 10
30.488
 20
-12.6286
 10
28.5788
 20
-16.5
 10
26.1807
 20
-20.0891
 10
23.3345
 20
-23.3345
 10
20.0891
 20
-26.1807
 10
16.5
 20
-28.5788
 10
12.6286
 20
-30.488
 10
8.54103
 20
-31.8756
 10
4.30736
 20
-32.7177
 10
0
 20
-33
  0
ENDSEC
  0
EOF
