999
DXF from OpenSCAD
  0
SECTION
  2
HEADER
  9
$ACADVER
  1
AC1006
  9
$INSBASE
 10
0.0
 20
0.0
 30
0.0
  9
$EXTMIN
 10
-40
 20
-76
  9
$EXTMAX
 10
182
 20
40
  9
$LINMIN
 10
-40
 20
-76
  9
$LINMAX
 10
182
 20
40
  0
ENDSEC
  0
SECTION
  2
TABLES
  0
TABLE
  2
LTYPE
 70
1
  0
LTYPE
  2
CONTINUOUS
 70
64
  3
Solid line
 72
65
 73
0
 40
0.000000
  0
ENDTAB
  0
TABLE
  2
LAYER
 70
6
  0
LAYER
  2
0
 70
64
 62
7
  6
CONTINUOUS
  0
ENDTAB
  0
TABLE
  2
STYLE
 70
0
  0
ENDTAB
  0
ENDSEC
  0
SECTION
  2
BLOCKS
  0
ENDSEC
  0
SECTION
  2
ENTITIES
  0
LWPOLYLINE
100
AcDbEntity
  8
0
100
AcDbPolyline
 90
32
 70
1
 10
182
 20
-75
 10
153.336
 20
-13.6061
 10
151.311
 20
-9.5
 10
148.767
 20
-5.69335
 10
145.749
 20
-2.25126
 10
142.307
 20
0.767367
 10
138.5
 20
3.31089
 10
134.394
 20
5.33578
 10
130.059
 20
6.8074
 10
10.3528
 20
38.637
 10
5.22105
 20
39.6578
 10
0
 20
40
 10
-5.22105
 20
39.6578
 10
-10.3528
 20
38.637
 10
-15.3073
 20
36.9552
 10
-20
 20
34.641
 10
-24.3505
 20
31.7341
 10
-28.2843
 20
28.2843
 10
-31.7341
 20
24.3505
 10
-34.641
 20
20
 10
-36.9552
 20
15.3073
 10
-38.637
 20
10.3528
 10
-39.6578
 20
5.22105
 10
-40
 20
0
 10
-39.6578
 20
-5.22105
 10
-38.637
 20
-10.3528
 10
-36.9552
 20
-15.3073
 10
-34.641
 20
-20
 10
-31.7341
 20
-24.3505
 10
-28.2843
 20
-28.2843
 10
20
 20
-76
 10
182
 20
-76
  0
LWPOLYLINE
100
AcDbEntity
  8
0
100
AcDbPolyline
 90
48
 70
1
 10
-1.99052
 20
-15.1195
 10
-3.94699
 20
-14.7304
 10
-5.83592
 20
-14.0892
 10
-7.625
 20
-13.2069
 10
-9.28361
 20
-12.0986
 10
-10.7834
 20
-10.7834
 10
-12.0986
 20
-9.28361
 10
-13.2069
 20
-7.625
 10
-14.0892
 20
-5.83592
 10
-14.7304
 20
-3.94699
 10
-15.1195
 20
-1.99052
 10
-15.25
 20
0
 10
-15.1195
 20
1.99052
 10
-14.7304
 20
3.94699
 10
-14.0892
 20
5.83592
 10
-13.2069
 20
7.625
 10
-12.0986
 20
9.28361
 10
-10.7834
 20
10.7834
 10
-9.28361
 20
12.0986
 10
-7.625
 20
13.2069
 10
-5.83592
 20
14.0892
 10
-3.94699
 20
14.7304
 10
-1.99052
 20
15.1195
 10
0
 20
15.25
 10
1.99052
 20
15.1195
 10
3.94699
 20
14.7304
 10
5.83592
 20
14.0892
 10
7.625
 20
13.2069
 10
9.28361
 20
12.0986
 10
10.7834
 20
10.7834
 10
12.0986
 20
9.28361
 10
13.2069
 20
7.625
 10
14.0892
 20
5.83592
 10
14.7304
 20
3.94699
 10
15.1195
 20
1.99052
 10
15.25
 20
0
 10
15.1195
 20
-1.99052
 10
14.7304
 20
-3.94699
 10
14.0892
 20
-5.83592
 10
13.2069
 20
-7.625
 10
12.0986
 20
-9.28361
 10
10.7834
 20
-10.7834
 10
9.28361
 20
-12.0986
 10
7.625
 20
-13.2069
 10
5.83592
 20
-14.0892
 10
3.94699
 20
-14.7304
 10
1.99052
 20
-15.1195
 10
0
 20
-15.25
  0
LWPOLYLINE
100
AcDbEntity
  8
0
100
AcDbPolyline
 90
48
 70
1
 10
119.336
 20
-39.6409
 10
117.7
 20
-39.3156
 10
116.121
 20
-38.7795
 10
114.625
 20
-38.0418
 10
113.238
 20
-37.1153
 10
111.984
 20
-36.0156
 10
110.885
 20
-34.7617
 10
109.958
 20
-33.375
 10
109.221
 20
-31.8792
 10
108.684
 20
-30.2999
 10
108.359
 20
-28.6642
 10
108.25
 20
-27
 10
108.359
 20
-25.3358
 10
108.684
 20
-23.7001
 10
109.221
 20
-22.1208
 10
109.958
 20
-20.625
 10
110.885
 20
-19.2383
 10
111.984
 20
-17.9844
 10
113.238
 20
-16.8847
 10
114.625
 20
-15.9582
 10
116.121
 20
-15.2205
 10
117.7
 20
-14.6844
 10
119.336
 20
-14.3591
 10
121
 20
-14.25
 10
122.664
 20
-14.3591
 10
124.3
 20
-14.6844
 10
125.879
 20
-15.2205
 10
127.375
 20
-15.9582
 10
128.762
 20
-16.8847
 10
130.016
 20
-17.9844
 10
131.115
 20
-19.2383
 10
132.042
 20
-20.625
 10
132.779
 20
-22.1208
 10
133.316
 20
-23.7001
 10
133.641
 20
-25.3358
 10
133.75
 20
-27
 10
133.641
 20
-28.6642
 10
133.316
 20
-30.2999
 10
132.779
 20
-31.8792
 10
132.042
 20
-33.375
 10
131.115
 20
-34.7617
 10
130.016
 20
-36.0156
 10
128.762
 20
-37.1153
 10
127.375
 20
-38.0418
 10
125.879
 20
-38.7795
 10
124.3
 20
-39.3156
 10
122.664
 20
-39.6409
 10
121
 20
-39.75
  0
ENDSEC
  0
EOF
