999
DXF from OpenSCAD
  0
SECTION
  2
HEADER
  9
$ACADVER
  1
AC1006
  9
$INSBASE
 10
0.0
 20
0.0
 30
0.0
  9
$EXTMIN
 10
1852.01
 20
-271.677
  9
$EXTMAX
 10
2210.48
 20
2.22507e-308
  9
$LINMIN
 10
1852.01
 20
-271.677
  9
$LINMAX
 10
2210.48
 20
2.22507e-308
  0
ENDSEC
  0
SECTION
  2
TABLES
  0
TABLE
  2
LTYPE
 70
1
  0
LTYPE
  2
CONTINUOUS
 70
64
  3
Solid line
 72
65
 73
0
 40
0.000000
  0
ENDTAB
  0
TABLE
  2
LAYER
 70
6
  0
LAYER
  2
0
 70
64
 62
7
  6
CONTINUOUS
  0
ENDTAB
  0
TABLE
  2
STYLE
 70
0
  0
ENDTAB
  0
ENDSEC
  0
SECTION
  2
BLOCKS
  0
ENDSEC
  0
SECTION
  2
ENTITIES
  0
LWPOLYLINE
100
AcDbEntity
  8
0
100
AcDbPolyline
 90
50
 70
1
 10
2179.06
 20
-267.179
 10
2183.29
 20
-266.763
 10
2187.43
 20
-265.797
 10
2191.41
 20
-264.3
 10
2195.16
 20
-262.296
 10
2198.61
 20
-259.82
 10
2201.71
 20
-256.914
 10
2204.41
 20
-253.628
 10
2206.66
 20
-250.018
 10
2208.41
 20
-246.146
 10
2209.65
 20
-242.078
 10
2210.34
 20
-237.884
 10
2210.48
 20
-233.635
 10
2210.06
 20
-229.404
 10
2209.1
 20
-225.264
 10
2207.6
 20
-221.285
 10
2205.59
 20
-217.536
 10
2203.12
 20
-214.08
 10
2200.21
 20
-210.977
 10
2196.93
 20
-208.28
 10
2193.32
 20
-206.035
 10
2189.44
 20
-204.28
 10
2185.38
 20
-203.046
 10
2181.18
 20
-202.353
 10
2176.93
 20
-202.214
 10
1887.79
 20
-197.716
 10
1882.97
 20
-198.19
 10
1878.26
 20
-199.289
 10
1873.73
 20
-200.994
 10
1869.46
 20
-203.275
 10
1865.52
 20
-206.094
 10
1861.99
 20
-209.402
 10
1858.92
 20
-213.143
 10
1856.36
 20
-217.253
 10
1854.37
 20
-221.662
 10
1852.96
 20
-226.293
 10
1852.17
 20
-231.068
 10
1852.01
 20
-235.905
 10
1852.49
 20
-240.722
 10
1853.59
 20
-245.435
 10
1855.29
 20
-249.965
 10
1857.57
 20
-254.233
 10
1860.39
 20
-258.168
 10
1863.7
 20
-261.7
 10
1867.44
 20
-264.771
 10
1871.55
 20
-267.327
 10
1875.96
 20
-269.324
 10
1880.59
 20
-270.729
 10
1885.37
 20
-271.518
 10
1890.2
 20
-271.677
  0
LWPOLYLINE
100
AcDbEntity
  8
0
100
AcDbPolyline
 90
48
 70
1
 10
1887.5
 20
-249.873
 10
1885.53
 20
-249.548
 10
1883.62
 20
-248.969
 10
1881.81
 20
-248.145
 10
1880.11
 20
-247.092
 10
1878.57
 20
-245.826
 10
1877.21
 20
-244.37
 10
1876.04
 20
-242.749
 10
1875.1
 20
-240.99
 10
1874.4
 20
-239.123
 10
1873.95
 20
-237.18
 10
1873.75
 20
-235.195
 10
1873.82
 20
-233.201
 10
1874.14
 20
-231.233
 10
1874.72
 20
-229.324
 10
1875.55
 20
-227.507
 10
1876.6
 20
-225.813
 10
1877.86
 20
-224.271
 10
1879.32
 20
-222.908
 10
1880.94
 20
-221.746
 10
1882.7
 20
-220.805
 10
1884.57
 20
-220.103
 10
1886.51
 20
-219.65
 10
1888.5
 20
-219.455
 10
1890.49
 20
-219.52
 10
1892.46
 20
-219.845
 10
1894.37
 20
-220.424
 10
1896.18
 20
-221.248
 10
1897.88
 20
-222.301
 10
1899.42
 20
-223.567
 10
1900.78
 20
-225.023
 10
1901.95
 20
-226.644
 10
1902.89
 20
-228.403
 10
1903.59
 20
-230.27
 10
1904.04
 20
-232.213
 10
1904.24
 20
-234.198
 10
1904.17
 20
-236.192
 10
1903.85
 20
-238.16
 10
1903.27
 20
-240.069
 10
1902.44
 20
-241.886
 10
1901.39
 20
-243.58
 10
1900.12
 20
-245.122
 10
1898.67
 20
-246.485
 10
1897.05
 20
-247.647
 10
1895.29
 20
-248.587
 10
1893.42
 20
-249.29
 10
1891.48
 20
-249.743
 10
1889.49
 20
-249.938
  0
LWPOLYLINE
100
AcDbEntity
  8
0
100
AcDbPolyline
 90
48
 70
1
 10
2176.74
 20
-247.385
 10
2175.1
 20
-247.113
 10
2173.5
 20
-246.629
 10
2171.98
 20
-245.941
 10
2170.57
 20
-245.06
 10
2169.28
 20
-244.002
 10
2168.14
 20
-242.784
 10
2167.17
 20
-241.429
 10
2166.38
 20
-239.958
 10
2165.79
 20
-238.397
 10
2165.41
 20
-236.773
 10
2165.25
 20
-235.113
 10
2165.31
 20
-233.446
 10
2165.58
 20
-231.801
 10
2166.06
 20
-230.205
 10
2166.75
 20
-228.686
 10
2167.63
 20
-227.269
 10
2168.69
 20
-225.98
 10
2169.91
 20
-224.84
 10
2171.26
 20
-223.869
 10
2172.73
 20
-223.083
 10
2174.29
 20
-222.495
 10
2175.92
 20
-222.117
 10
2177.58
 20
-221.953
 10
2179.25
 20
-222.008
 10
2180.89
 20
-222.28
 10
2182.49
 20
-222.764
 10
2184.01
 20
-223.452
 10
2185.42
 20
-224.333
 10
2186.71
 20
-225.391
 10
2187.85
 20
-226.608
 10
2188.82
 20
-227.964
 10
2189.61
 20
-229.435
 10
2190.2
 20
-230.996
 10
2190.57
 20
-232.62
 10
2190.74
 20
-234.28
 10
2190.68
 20
-235.947
 10
2190.41
 20
-237.592
 10
2189.93
 20
-239.188
 10
2189.24
 20
-240.707
 10
2188.36
 20
-242.124
 10
2187.3
 20
-243.413
 10
2186.08
 20
-244.553
 10
2184.73
 20
-245.524
 10
2183.26
 20
-246.31
 10
2181.7
 20
-246.898
 10
2180.07
 20
-247.276
 10
2178.41
 20
-247.44
  0
ENDSEC
  0
EOF
