999
DXF from OpenSCAD
  0
SECTION
  2
HEADER
  9
$ACADVER
  1
AC1006
  9
$INSBASE
 10
0.0
 20
0.0
 30
0.0
  9
$EXTMIN
 10
85.4152
 20
4.02952
  9
$EXTMAX
 10
423.614
 20
247.119
  9
$LINMIN
 10
85.4152
 20
4.02952
  9
$LINMAX
 10
423.614
 20
247.119
  0
ENDSEC
  0
SECTION
  2
TABLES
  0
TABLE
  2
LTYPE
 70
1
  0
LTYPE
  2
CONTINUOUS
 70
64
  3
Solid line
 72
65
 73
0
 40
0.000000
  0
ENDTAB
  0
TABLE
  2
LAYER
 70
6
  0
LAYER
  2
0
 70
64
 62
7
  6
CONTINUOUS
  0
ENDTAB
  0
TABLE
  2
STYLE
 70
0
  0
ENDTAB
  0
ENDSEC
  0
SECTION
  2
BLOCKS
  0
ENDSEC
  0
SECTION
  2
ENTITIES
  0
LWPOLYLINE
100
AcDbEntity
  8
0
100
AcDbPolyline
 90
54
 70
1
 10
380.262
 20
73.6326
 10
390.447
 20
79.9768
 10
321.551
 20
190.592
 10
316.928
 20
197.472
 10
311.842
 20
204.017
 10
306.316
 20
210.194
 10
300.377
 20
215.976
 10
294.052
 20
221.334
 10
287.373
 20
226.242
 10
280.372
 20
230.678
 10
273.08
 20
234.62
 10
265.534
 20
238.049
 10
257.769
 20
240.949
 10
249.823
 20
243.306
 10
241.733
 20
245.108
 10
233.537
 20
246.349
 10
225.276
 20
247.02
 10
216.988
 20
247.119
 10
208.713
 20
246.646
 10
200.49
 20
245.603
 10
192.359
 20
243.995
 10
184.358
 20
241.83
 10
176.526
 20
239.117
 10
168.899
 20
235.87
 10
161.516
 20
232.104
 10
154.409
 20
227.838
 10
147.614
 20
223.091
 10
132.684
 20
211.874
 10
131.134
 20
210.669
 10
129.624
 20
209.415
 10
128.156
 20
208.111
 10
126.731
 20
206.76
 10
125.351
 20
205.363
 10
124.018
 20
203.922
 10
122.733
 20
202.438
 10
121.496
 20
200.912
 10
120.311
 20
199.347
 10
119.177
 20
197.744
 10
118.096
 20
196.105
 10
117.07
 20
194.431
 10
116.099
 20
192.725
 10
115.184
 20
190.988
 10
114.326
 20
189.221
 10
113.527
 20
187.428
 10
112.787
 20
185.609
 10
112.107
 20
183.768
 10
111.487
 20
181.904
 10
110.929
 20
180.022
 10
110.432
 20
178.122
 10
109.998
 20
176.208
 10
109.627
 20
174.28
 10
109.319
 20
172.341
 10
85.4152
 20
4.02952
 10
423.614
 20
4.02952
  0
ENDSEC
  0
EOF
