999
DXF from OpenSCAD
  0
SECTION
  2
HEADER
  9
$ACADVER
  1
AC1006
  9
$INSBASE
 10
0.0
 20
0.0
 30
0.0
  9
$EXTMIN
 10
-65
 20
-65
  9
$EXTMAX
 10
65
 20
65
  9
$LINMIN
 10
-65
 20
-65
  9
$LINMAX
 10
65
 20
65
  0
ENDSEC
  0
SECTION
  2
TABLES
  0
TABLE
  2
LTYPE
 70
1
  0
LTYPE
  2
CONTINUOUS
 70
64
  3
Solid line
 72
65
 73
0
 40
0.000000
  0
ENDTAB
  0
TABLE
  2
LAYER
 70
6
  0
LAYER
  2
0
 70
64
 62
7
  6
CONTINUOUS
  0
ENDTAB
  0
TABLE
  2
STYLE
 70
0
  0
ENDTAB
  0
ENDSEC
  0
SECTION
  2
BLOCKS
  0
ENDSEC
  0
SECTION
  2
ENTITIES
  0
LWPOLYLINE
100
AcDbEntity
  8
0
100
AcDbPolyline
 90
48
 70
1
 10
8.4842
 20
-64.4439
 10
16.8232
 20
-62.7852
 10
24.8744
 20
-60.0522
 10
32.5
 20
-56.2917
 10
39.5695
 20
-51.568
 10
45.9619
 20
-45.9619
 10
51.568
 20
-39.5695
 10
56.2917
 20
-32.5
 10
60.0522
 20
-24.8744
 10
62.7852
 20
-16.8232
 10
64.4439
 20
-8.4842
 10
65
 20
0
 10
64.4439
 20
8.4842
 10
62.7852
 20
16.8232
 10
60.0522
 20
24.8744
 10
56.2917
 20
32.5
 10
51.568
 20
39.5695
 10
45.9619
 20
45.9619
 10
39.5695
 20
51.568
 10
32.5
 20
56.2917
 10
24.8744
 20
60.0522
 10
16.8232
 20
62.7852
 10
8.4842
 20
64.4439
 10
0
 20
65
 10
-8.4842
 20
64.4439
 10
-16.8232
 20
62.7852
 10
-24.8744
 20
60.0522
 10
-32.5
 20
56.2917
 10
-39.5695
 20
51.568
 10
-45.9619
 20
45.9619
 10
-51.568
 20
39.5695
 10
-56.2917
 20
32.5
 10
-60.0522
 20
24.8744
 10
-62.7852
 20
16.8232
 10
-64.4439
 20
8.4842
 10
-65
 20
0
 10
-64.4439
 20
-8.4842
 10
-62.7852
 20
-16.8232
 10
-60.0522
 20
-24.8744
 10
-56.2917
 20
-32.5
 10
-51.568
 20
-39.5695
 10
-45.9619
 20
-45.9619
 10
-39.5695
 20
-51.568
 10
-32.5
 20
-56.2917
 10
-24.8744
 20
-60.0522
 10
-16.8232
 20
-62.7852
 10
-8.4842
 20
-64.4439
 10
0
 20
-65
  0
LWPOLYLINE
100
AcDbEntity
  8
0
100
AcDbPolyline
 90
48
 70
1
 10
-4.30736
 20
-32.7177
 10
-8.54103
 20
-31.8756
 10
-12.6286
 20
-30.488
 10
-16.5
 20
-28.5788
 10
-20.0891
 20
-26.1807
 10
-23.3345
 20
-23.3345
 10
-26.1807
 20
-20.0891
 10
-28.5788
 20
-16.5
 10
-30.488
 20
-12.6286
 10
-31.8756
 20
-8.54103
 10
-32.7177
 20
-4.30736
 10
-33
 20
0
 10
-32.7177
 20
4.30736
 10
-31.8756
 20
8.54103
 10
-30.488
 20
12.6286
 10
-28.5788
 20
16.5
 10
-26.1807
 20
20.0891
 10
-23.3345
 20
23.3345
 10
-20.0891
 20
26.1807
 10
-16.5
 20
28.5788
 10
-12.6286
 20
30.488
 10
-8.54103
 20
31.8756
 10
-4.30736
 20
32.7177
 10
0
 20
33
 10
4.30736
 20
32.7177
 10
8.54103
 20
31.8756
 10
12.6286
 20
30.488
 10
16.5
 20
28.5788
 10
20.0891
 20
26.1807
 10
23.3345
 20
23.3345
 10
26.1807
 20
20.0891
 10
28.5788
 20
16.5
 10
30.488
 20
12.6286
 10
31.8756
 20
8.54103
 10
32.7177
 20
4.30736
 10
33
 20
0
 10
32.7177
 20
-4.30736
 10
31.8756
 20
-8.54103
 10
30.488
 20
-12.6286
 10
28.5788
 20
-16.5
 10
26.1807
 20
-20.0891
 10
23.3345
 20
-23.3345
 10
20.0891
 20
-26.1807
 10
16.5
 20
-28.5788
 10
12.6286
 20
-30.488
 10
8.54103
 20
-31.8756
 10
4.30736
 20
-32.7177
 10
0
 20
-33
  0
ENDSEC
  0
EOF
