999
DXF from OpenSCAD
  0
SECTION
  2
HEADER
  9
$ACADVER
  1
AC1006
  9
$INSBASE
 10
0.0
 20
0.0
 30
0.0
  9
$EXTMIN
 10
694.84
 20
290.382
  9
$EXTMAX
 10
829.003
 20
449.287
  9
$LINMIN
 10
694.84
 20
290.382
  9
$LINMAX
 10
829.003
 20
449.287
  0
ENDSEC
  0
SECTION
  2
TABLES
  0
TABLE
  2
LTYPE
 70
1
  0
LTYPE
  2
CONTINUOUS
 70
64
  3
Solid line
 72
65
 73
0
 40
0.000000
  0
ENDTAB
  0
TABLE
  2
LAYER
 70
6
  0
LAYER
  2
0
 70
64
 62
7
  6
CONTINUOUS
  0
ENDTAB
  0
TABLE
  2
STYLE
 70
0
  0
ENDTAB
  0
ENDSEC
  0
SECTION
  2
BLOCKS
  0
ENDSEC
  0
SECTION
  2
ENTITIES
  0
LWPOLYLINE
100
AcDbEntity
  8
0
100
AcDbPolyline
 90
44
 70
1
 10
826.453
 20
331.88
 10
807.309
 20
386.213
 10
810.138
 20
387.299
 10
813.874
 20
389.328
 10
817.313
 20
391.827
 10
820.396
 20
394.754
 10
823.071
 20
398.058
 10
825.292
 20
401.683
 10
827.021
 20
405.567
 10
828.227
 20
409.643
 10
828.892
 20
413.842
 10
829.003
 20
418.092
 10
828.558
 20
422.32
 10
827.565
 20
426.453
 10
826.041
 20
430.422
 10
824.012
 20
434.158
 10
821.513
 20
437.597
 10
818.586
 20
440.68
 10
815.282
 20
443.355
 10
811.657
 20
445.576
 10
807.773
 20
447.305
 10
803.697
 20
448.511
 10
799.498
 20
449.176
 10
795.248
 20
449.287
 10
791.02
 20
448.842
 10
786.887
 20
447.849
 10
782.918
 20
446.325
 10
779.182
 20
444.296
 10
775.743
 20
441.797
 10
772.66
 20
438.87
 10
769.985
 20
435.566
 10
767.764
 20
431.941
 10
766.035
 20
428.057
 10
764.828
 20
423.981
 10
764.164
 20
419.782
 10
764.053
 20
415.532
 10
764.498
 20
411.304
 10
765.491
 20
407.171
 10
767.015
 20
403.202
 10
769.044
 20
399.466
 10
771.543
 20
396.027
 10
774.47
 20
392.944
 10
776.202
 20
391.541
 10
694.84
 20
290.382
  0
LWPOLYLINE
100
AcDbEntity
  8
0
100
AcDbPolyline
 90
48
 70
1
 10
795.386
 20
404.364
 10
793.771
 20
404.62
 10
792.203
 20
405.084
 10
790.709
 20
405.749
 10
789.315
 20
406.603
 10
788.044
 20
407.632
 10
786.918
 20
408.818
 10
785.957
 20
410.14
 10
785.177
 20
411.577
 10
784.591
 20
413.104
 10
784.209
 20
414.694
 10
784.038
 20
416.32
 10
784.08
 20
417.954
 10
784.336
 20
419.569
 10
784.8
 20
421.137
 10
785.465
 20
422.631
 10
786.319
 20
424.025
 10
787.348
 20
425.296
 10
788.534
 20
426.421
 10
789.857
 20
427.383
 10
791.293
 20
428.163
 10
792.82
 20
428.749
 10
794.41
 20
429.131
 10
796.036
 20
429.302
 10
797.67
 20
429.26
 10
799.285
 20
429.004
 10
800.853
 20
428.54
 10
802.347
 20
427.875
 10
803.741
 20
427.021
 10
805.012
 20
425.992
 10
806.138
 20
424.806
 10
807.099
 20
423.483
 10
807.879
 20
422.047
 10
808.465
 20
420.52
 10
808.847
 20
418.93
 10
809.018
 20
417.304
 10
808.976
 20
415.67
 10
808.72
 20
414.055
 10
808.256
 20
412.487
 10
807.591
 20
410.993
 10
806.737
 20
409.599
 10
805.708
 20
408.328
 10
804.522
 20
407.202
 10
803.199
 20
406.241
 10
801.763
 20
405.461
 10
800.236
 20
404.875
 10
798.646
 20
404.493
 10
797.02
 20
404.322
  0
ENDSEC
  0
EOF
