999
DXF from OpenSCAD
  0
SECTION
  2
HEADER
  9
$ACADVER
  1
AC1006
  9
$INSBASE
 10
0.0
 20
0.0
 30
0.0
  9
$EXTMIN
 10
-1183.38
 20
1831.43
  9
$EXTMAX
 10
2.22507e-308
 20
1896.39
  9
$LINMIN
 10
-1183.38
 20
1831.43
  9
$LINMAX
 10
2.22507e-308
 20
1896.39
  0
ENDSEC
  0
SECTION
  2
TABLES
  0
TABLE
  2
LTYPE
 70
1
  0
LTYPE
  2
CONTINUOUS
 70
64
  3
Solid line
 72
65
 73
0
 40
0.000000
  0
ENDTAB
  0
TABLE
  2
LAYER
 70
6
  0
LAYER
  2
0
 70
64
 62
7
  6
CONTINUOUS
  0
ENDTAB
  0
TABLE
  2
STYLE
 70
0
  0
ENDTAB
  0
ENDSEC
  0
SECTION
  2
BLOCKS
  0
ENDSEC
  0
SECTION
  2
ENTITIES
  0
LWPOLYLINE
100
AcDbEntity
  8
0
100
AcDbPolyline
 90
50
 70
1
 10
-818.42
 20
1831.88
 10
-814.286
 20
1832.87
 10
-810.316
 20
1834.39
 10
-806.579
 20
1836.41
 10
-803.138
 20
1838.91
 10
-800.053
 20
1841.83
 10
-797.375
 20
1845.14
 10
-795.152
 20
1848.76
 10
-793.421
 20
1852.64
 10
-792.211
 20
1856.72
 10
-791.543
 20
1860.92
 10
-791.43
 20
1865.17
 10
-791.872
 20
1869.4
 10
-792.862
 20
1873.53
 10
-794.383
 20
1877.5
 10
-796.409
 20
1881.24
 10
-798.906
 20
1884.68
 10
-801.83
 20
1887.76
 10
-805.133
 20
1890.44
 10
-808.756
 20
1892.66
 10
-812.639
 20
1894.39
 10
-816.714
 20
1895.6
 10
-820.913
 20
1896.27
 10
-825.162
 20
1896.39
 10
-1152.16
 20
1896.39
 10
-1156.39
 20
1895.94
 10
-1160.52
 20
1894.95
 10
-1164.49
 20
1893.43
 10
-1168.23
 20
1891.41
 10
-1171.67
 20
1888.91
 10
-1174.76
 20
1885.98
 10
-1177.44
 20
1882.68
 10
-1179.66
 20
1879.06
 10
-1181.39
 20
1875.18
 10
-1182.6
 20
1871.1
 10
-1183.27
 20
1866.9
 10
-1183.38
 20
1862.65
 10
-1182.94
 20
1858.42
 10
-1181.95
 20
1854.29
 10
-1180.43
 20
1850.32
 10
-1178.4
 20
1846.58
 10
-1175.9
 20
1843.14
 10
-1172.98
 20
1840.06
 10
-1169.68
 20
1837.38
 10
-1166.05
 20
1835.16
 10
-1162.17
 20
1833.43
 10
-1158.1
 20
1832.22
 10
-1153.9
 20
1831.55
 10
-1149.65
 20
1831.43
 10
-822.648
 20
1831.43
  0
LWPOLYLINE
100
AcDbEntity
  8
0
100
AcDbPolyline
 90
48
 70
1
 10
-1152.08
 20
1851.21
 10
-1153.73
 20
1851.48
 10
-1155.33
 20
1851.95
 10
-1156.85
 20
1852.63
 10
-1158.27
 20
1853.5
 10
-1159.57
 20
1854.55
 10
-1160.71
 20
1855.76
 10
-1161.69
 20
1857.11
 10
-1162.49
 20
1858.58
 10
-1163.08
 20
1860.14
 10
-1163.47
 20
1861.76
 10
-1163.65
 20
1863.42
 10
-1163.6
 20
1865.08
 10
-1163.34
 20
1866.73
 10
-1162.86
 20
1868.33
 10
-1162.19
 20
1869.85
 10
-1161.31
 20
1871.27
 10
-1160.26
 20
1872.57
 10
-1159.05
 20
1873.72
 10
-1157.7
 20
1874.7
 10
-1156.24
 20
1875.49
 10
-1154.68
 20
1876.09
 10
-1153.06
 20
1876.48
 10
-1151.4
 20
1876.65
 10
-1149.73
 20
1876.61
 10
-1148.08
 20
1876.34
 10
-1146.49
 20
1875.87
 10
-1144.96
 20
1875.19
 10
-1143.54
 20
1874.32
 10
-1142.25
 20
1873.27
 10
-1141.1
 20
1872.06
 10
-1140.12
 20
1870.71
 10
-1139.32
 20
1869.24
 10
-1138.73
 20
1867.68
 10
-1138.34
 20
1866.06
 10
-1138.16
 20
1864.4
 10
-1138.21
 20
1862.74
 10
-1138.47
 20
1861.09
 10
-1138.95
 20
1859.49
 10
-1139.63
 20
1857.97
 10
-1140.5
 20
1856.55
 10
-1141.55
 20
1855.25
 10
-1142.76
 20
1854.1
 10
-1144.11
 20
1853.12
 10
-1145.57
 20
1852.33
 10
-1147.13
 20
1851.73
 10
-1148.75
 20
1851.34
 10
-1150.41
 20
1851.17
  0
LWPOLYLINE
100
AcDbEntity
  8
0
100
AcDbPolyline
 90
48
 70
1
 10
-825.079
 20
1851.21
 10
-826.727
 20
1851.48
 10
-828.325
 20
1851.95
 10
-829.849
 20
1852.63
 10
-831.27
 20
1853.5
 10
-832.566
 20
1854.55
 10
-833.713
 20
1855.76
 10
-834.692
 20
1857.11
 10
-835.487
 20
1858.58
 10
-836.084
 20
1860.14
 10
-836.472
 20
1861.76
 10
-836.646
 20
1863.42
 10
-836.601
 20
1865.08
 10
-836.339
 20
1866.73
 10
-835.865
 20
1868.33
 10
-835.186
 20
1869.85
 10
-834.313
 20
1871.27
 10
-833.263
 20
1872.57
 10
-832.053
 20
1873.72
 10
-830.703
 20
1874.7
 10
-829.237
 20
1875.49
 10
-827.679
 20
1876.09
 10
-826.057
 20
1876.48
 10
-824.399
 20
1876.65
 10
-822.731
 20
1876.61
 10
-821.084
 20
1876.34
 10
-819.485
 20
1875.87
 10
-817.962
 20
1875.19
 10
-816.541
 20
1874.32
 10
-815.245
 20
1873.27
 10
-814.098
 20
1872.06
 10
-813.118
 20
1870.71
 10
-812.323
 20
1869.24
 10
-811.727
 20
1867.68
 10
-811.338
 20
1866.06
 10
-811.165
 20
1864.4
 10
-811.21
 20
1862.74
 10
-811.471
 20
1861.09
 10
-811.946
 20
1859.49
 10
-812.625
 20
1857.97
 10
-813.497
 20
1856.55
 10
-814.548
 20
1855.25
 10
-815.758
 20
1854.1
 10
-817.108
 20
1853.12
 10
-818.574
 20
1852.33
 10
-820.132
 20
1851.73
 10
-821.753
 20
1851.34
 10
-823.412
 20
1851.17
  0
ENDSEC
  0
EOF
